<svg width="72" height="140" viewBox="0 0 72 140" fill="none" xmlns="http://www.w3.org/2000/svg">
<path d="M67.1683 13.8158H72V9H67.1683V13.8158ZM67.1683 126.184V131H72V126.184H67.1683ZM29.1587 126.184H24.3269V131H29.1587V126.184ZM29.1587 42.3895H33.9904V37.5737H29.1587V42.3895ZM9.83173 42.3895H5V47.2053H9.83173V42.3895ZM9.83173 13.8158V9H5V13.8158H9.83173ZM62.3365 13.8158V126.184H72V13.8158H62.3365ZM67.1683 121.368H29.1587V131H67.1683V121.368ZM33.9904 126.184V42.3895H24.3269V126.184H33.9904ZM29.1587 37.5737H9.83173V47.2053H29.1587V37.5737ZM14.6635 42.3895V13.8158H5V42.3895H14.6635ZM9.83173 18.6316H67.1683V9H9.83173V18.6316Z" fill="#2D2D2D"/>
</svg>
