<svg width="121" height="144" viewBox="0 0 121 144" fill="none" xmlns="http://www.w3.org/2000/svg">
<g clip-path="url(#clip0_43_10)">
<path d="M116.428 104.474H122V98.9072H116.428V104.474ZM116.428 138.433V144H122V138.433H116.428ZM12.2245 138.433H6.65219V144H12.2245V138.433ZM12.2245 111.526L8.4409 107.439L6.65219 109.092V111.526H12.2245ZM59.2181 68.1031L63.0017 72.19L63.0176 72.1754L63.0334 72.1606L59.2181 68.1031ZM67.3909 58.268L72.375 60.7577L67.3909 58.268ZM66.0907 42.866L62.4039 47.0403L62.5333 47.1544L62.6696 47.2603L66.0907 42.866ZM45.6587 43.2371L48.5507 47.9957L45.6587 43.2371ZM37.6716 52.1443L35.1796 57.1236L40.2288 59.6458L42.6877 54.5691L37.6716 52.1443ZM4.60899 35.6289L-0.307799 33.0091L-3 38.0521L2.11696 40.6082L4.60899 35.6289ZM26.3412 13.7319L29.0581 18.5924L29.082 18.5791L29.1058 18.5654L26.3412 13.7319ZM88.1944 10.5773L86.0284 15.7066L88.1944 10.5773ZM106.769 24.866L102.247 28.1188L106.769 24.866ZM108.812 66.433L103.808 63.9827L103.799 64.0033L103.789 64.024L108.812 66.433ZM91.1663 87.5876L87.4353 83.4526L87.4256 83.4614L87.4159 83.4703L91.1663 87.5876ZM72.5918 104.474L68.8414 100.356L58.1889 110.041H72.5918V104.474ZM110.855 104.474V138.433H122V104.474H110.855ZM116.428 132.866H12.2245V144H116.428V132.866ZM17.7969 138.433V111.526H6.65219V138.433H17.7969ZM16.0082 115.613L63.0017 72.19L55.4345 64.0162L8.4409 107.439L16.0082 115.613ZM63.0334 72.1606C67.2661 68.1883 70.5672 64.3697 72.375 60.7577L62.4068 55.7784C61.4903 57.6097 59.3429 60.3478 55.4028 64.0456L63.0334 72.1606ZM72.375 60.7577C74.0579 57.395 75.0064 53.8873 75.0064 50.2887H63.8617C63.8617 51.8859 63.4482 53.6977 62.4068 55.7784L72.375 60.7577ZM75.0064 50.2887C75.0064 45.6275 73.3003 41.4154 69.5117 38.4717L62.6696 47.2603C63.339 47.7804 63.8617 48.5169 63.8617 50.2887H75.0064ZM69.7774 38.6917C66.2761 35.6051 61.6402 34.5155 56.8034 34.5155V45.6495C60.1394 45.6495 61.695 46.4154 62.4039 47.0403L69.7774 38.6917ZM56.8034 34.5155C51.7959 34.5155 47.0841 35.8598 42.7667 38.4785L48.5507 47.9957C51.1678 46.4083 53.8858 45.6495 56.8034 45.6495V34.5155ZM42.7667 38.4785C38.3327 41.168 34.9559 44.9704 32.6556 49.7195L42.6877 54.5691C44.1023 51.6481 46.0502 49.5124 48.5507 47.9957L42.7667 38.4785ZM40.1637 47.165L7.10102 30.6495L2.11696 40.6082L35.1796 57.1236L40.1637 47.165ZM9.52578 38.2486C13.9564 29.9491 20.4194 23.412 29.0581 18.5924L23.6243 8.87148C13.1931 14.6911 5.16797 22.7519 -0.307799 33.0091L9.52578 38.2486ZM29.1058 18.5654C37.626 13.7014 48.1416 11.134 60.8898 11.134V0C46.6431 0 34.1261 2.87586 23.5766 8.89843L29.1058 18.5654ZM60.8898 11.134C70.5659 11.134 78.9086 12.7058 86.0284 15.7066L90.3603 5.44807C81.6298 1.76843 71.7696 0 60.8898 0V11.134ZM86.0284 15.7066C93.1337 18.7013 98.4605 22.8651 102.247 28.1188L111.291 21.6132C106.161 14.4958 99.105 9.1338 90.3603 5.44807L86.0284 15.7066ZM102.247 28.1188C105.983 33.3031 107.883 39.2642 107.883 46.2062H119.028C119.028 37.0657 116.47 28.8001 111.291 21.6132L102.247 28.1188ZM107.883 46.2062C107.883 52.5506 106.522 58.4526 103.808 63.9827L113.816 68.8833C117.294 61.7948 119.028 54.2123 119.028 46.2062H107.883ZM103.789 64.024C101.279 69.2459 96.0216 75.7203 87.4353 83.4526L94.8973 91.7226C103.894 83.6198 110.401 75.9913 113.836 68.842L103.789 64.024ZM87.4159 83.4703L68.8414 100.356L76.3421 108.592L94.9167 91.705L87.4159 83.4703ZM72.5918 110.041H116.428V98.9072H72.5918V110.041Z" fill="#2D2D2D"/>
</g>
<defs>
<clipPath id="clip0_43_10">
<rect width="121" height="144" fill="white"/>
</clipPath>
</defs>
</svg>
