<svg width="121" height="144" viewBox="0 0 121 144" fill="none" xmlns="http://www.w3.org/2000/svg">
<path d="M84.5578 60.5954L80.7317 56.8518L74.113 63.5285L83.2705 65.7749L84.5578 60.5954ZM106.754 73.5773L102.584 76.9386L102.619 76.9814L102.655 77.0234L106.754 73.5773ZM108.365 116.969L103.834 114.105L103.828 114.116L103.821 114.126L108.365 116.969ZM89.3908 132.619L91.6839 137.442L89.3908 132.619ZM30.8572 135.82L29.7074 141.031L29.7149 141.033L29.7223 141.034L30.8572 135.82ZM7.9449 127.461L3.06583 125.233L1 129.697L5.30813 132.109L7.9449 127.461ZM22.2651 96.518L24.9641 91.9059L19.8549 88.9547L17.386 94.2894L22.2651 96.518ZM38.7332 103.276L37.3562 108.432L37.3691 108.436L37.382 108.439L38.7332 103.276ZM67.7316 103.098L65.1078 98.4431L67.7316 103.098ZM40.7023 87.4484H35.3322V92.7835H40.7023V87.4484ZM40.7023 61.6624L36.8688 57.9263L35.3322 59.4825V61.6624H40.7023ZM59.1395 42.9897L62.9731 46.7257L71.9297 37.6546H59.1395V42.9897ZM14.389 42.9897H9.01892V48.3247H14.389V42.9897ZM14.389 11.3351V6H9.01892V11.3351H14.389ZM107.828 11.3351H113.198V6H107.828V11.3351ZM107.828 37.1211L111.654 40.8647L113.198 39.3072V37.1211H107.828ZM83.2705 65.7749C92.0604 67.9311 98.3408 71.7423 102.584 76.9386L110.925 70.2161C104.905 62.8452 96.3874 58.0019 85.8451 55.4158L83.2705 65.7749ZM102.655 77.0234C107.012 82.1393 109.26 88.3559 109.26 95.9845H120C120 86.0667 116.998 77.3453 110.854 70.1311L102.655 77.0234ZM109.26 95.9845C109.26 102.403 107.483 108.409 103.834 114.105L112.895 119.833C117.6 112.489 120 104.505 120 95.9845H109.26ZM103.821 114.126C100.429 119.478 94.9935 124.09 87.0978 127.795L91.6839 137.442C100.972 133.085 108.186 127.264 112.91 119.812L103.821 114.126ZM87.0978 127.795C79.4249 131.394 69.5843 133.33 57.3495 133.33V144C70.6523 144 82.1727 141.905 91.6839 137.442L87.0978 127.795ZM57.3495 133.33C48.909 133.33 40.4586 132.424 31.992 130.605L29.7223 141.034C38.9174 143.009 48.1284 144 57.3495 144V133.33ZM32.0069 130.608C23.7237 128.805 16.6042 126.186 10.5817 122.814L5.30813 132.109C12.4125 136.087 20.5678 139.041 29.7074 141.031L32.0069 130.608ZM12.824 129.69L27.1441 98.7467L17.386 94.2894L3.06583 125.233L12.824 129.69ZM19.566 101.13C25.1196 104.338 31.0546 106.771 37.3562 108.432L40.1103 98.1191C34.7171 96.6976 29.6733 94.6259 24.9641 91.9059L19.566 101.13ZM37.382 108.439C43.7367 110.081 49.9202 110.923 55.9174 110.923V100.253C50.936 100.253 45.6633 99.5534 40.0845 98.1124L37.382 108.439ZM55.9174 110.923C61.3568 110.923 66.2985 110.009 70.3554 107.753L65.1078 98.4431C63.1979 99.5056 60.2636 100.253 55.9174 100.253V110.923ZM70.3554 107.753C74.8237 105.267 77.5767 101.227 77.5767 95.9845H66.8366C66.8366 96.9071 66.6062 97.6094 65.1078 98.4431L70.3554 107.753ZM77.5767 95.9845C77.5767 91.2375 75.3191 87.3418 71.1808 84.9641C67.489 82.8431 62.6435 82.1134 57.3495 82.1134V92.7835C61.9602 92.7835 64.5434 93.4765 65.804 94.2009C66.3532 94.5163 66.5455 94.7762 66.6255 94.9141C66.7058 95.0525 66.8366 95.3501 66.8366 95.9845H77.5767ZM57.3495 82.1134H40.7023V92.7835H57.3495V82.1134ZM46.0723 87.4484V61.6624H35.3322V87.4484H46.0723ZM44.5359 65.3983L62.9731 46.7257L55.306 39.2537L36.8688 57.9263L44.5359 65.3983ZM59.1395 37.6546H14.389V48.3247H59.1395V37.6546ZM19.759 42.9897V11.3351H9.01892V42.9897H19.759ZM14.389 16.6701H107.828V6H14.389V16.6701ZM102.458 11.3351V37.1211H113.198V11.3351H102.458ZM104.002 33.3776L80.7317 56.8518L88.3839 64.3389L111.654 40.8647L104.002 33.3776Z" fill="#2D2D2D"/>
</svg>
