<svg width="138" height="140" viewBox="0 0 138 140" fill="none" xmlns="http://www.w3.org/2000/svg">
<path d="M123.805 109.342V114.474H129V109.342H123.805ZM107.702 109.342V104.211H102.507V109.342H107.702ZM107.702 129.868V135H112.897V129.868H107.702ZM68.0495 129.868H62.8549V135H68.0495V129.868ZM68.0495 109.342H73.2441V104.211H68.0495V109.342ZM5.19462 109.342H0V114.474H5.19462V109.342ZM5.19462 83.6842L0.920426 80.7678L0 82.0843V83.6842H5.19462ZM56.6213 10.1316V5H53.896L52.3471 7.21523L56.6213 10.1316ZM98.5249 10.1316L102.85 12.9731L108.217 5H98.5249V10.1316ZM52.8119 78.0395L48.4864 75.1979L43.1193 83.1711H52.8119V78.0395ZM69.2616 78.0395V83.1711H74.4562V78.0395H69.2616ZM69.2616 59.7368V54.6053H64.0669V59.7368H69.2616ZM107.702 59.7368H112.897V54.6053H107.702V59.7368ZM107.702 78.0395H102.507V83.1711H107.702V78.0395ZM123.805 78.0395H129V72.9079H123.805V78.0395ZM123.805 104.211H107.702V114.474H123.805V104.211ZM102.507 109.342V129.868H112.897V109.342H102.507ZM107.702 124.737H68.0495V135H107.702V124.737ZM73.2441 129.868V109.342H62.8549V129.868H73.2441ZM68.0495 104.211H5.19462V114.474H68.0495V104.211ZM10.3892 109.342V83.6842H0V109.342H10.3892ZM9.46881 86.6006L60.8955 13.0479L52.3471 7.21523L0.920426 80.7678L9.46881 86.6006ZM56.6213 15.2632H98.5249V5H56.6213V15.2632ZM94.1987 7.29006L48.4864 75.1979L57.1375 80.881L102.85 12.9731L94.1987 7.29006ZM52.8119 83.1711H69.2616V72.9079H52.8119V83.1711ZM74.4562 78.0395V59.7368H64.0669V78.0395H74.4562ZM69.2616 64.8684H107.702V54.6053H69.2616V64.8684ZM102.507 59.7368V78.0395H112.897V59.7368H102.507ZM107.702 83.1711H123.805V72.9079H107.702V83.1711ZM118.611 78.0395V109.342H129V78.0395H118.611Z" fill="#2D2D2D"/>
</svg>
