<svg width="120" height="144" viewBox="0 0 120 144" fill="none" xmlns="http://www.w3.org/2000/svg">
<path d="M99.8519 62.9755L96.4137 66.8576L96.4429 66.8842L96.4721 66.9102L99.8519 62.9755ZM105.854 112.209L101.491 109.443L101.484 109.454L101.478 109.464L105.854 112.209ZM87.6767 127.866L89.8735 132.585L89.8997 132.573L89.9259 132.56L87.6767 127.866ZM31.6026 130.997L30.5012 136.096L30.5083 136.097L30.5154 136.098L31.6026 130.997ZM9.65309 122.821L4.97902 120.641L3 125.008L7.12711 127.368L9.65309 122.821ZM23.3715 92.5503L25.9129 88.0125L21.0391 85.2031L18.6975 90.3701L23.3715 92.5503ZM39.1477 99.1611L37.8029 104.198L37.8157 104.202L37.8285 104.205L39.1477 99.1611ZM66.7561 98.9871L69.2697 103.541L69.2984 103.524L69.3269 103.508L66.7561 98.9871ZM67.2705 85.4175L64.7392 89.9611L64.8144 90.0041L64.8909 90.0447L67.2705 85.4175ZM18.2271 83.1559L13.1001 82.7275L12.6416 88.375H18.2271V83.1559ZM24.2289 9.21907V4H19.4907L19.1019 8.79072L24.2289 9.21907ZM103.967 9.21907H109.112V4H103.967V9.21907ZM103.967 40.1856V45.4046H109.112V40.1856H103.967ZM57.4961 40.1856V34.9665H52.7111L52.3652 39.8084L57.4961 40.1856ZM56.6387 52.1894L51.5078 51.8123L51.1081 57.4085H56.6387V52.1894ZM62.812 57.4085C79.0538 57.4085 89.8884 60.9094 96.4137 66.8576L103.29 59.0934C94.0392 50.6603 80.1805 46.9704 62.812 46.9704V57.4085ZM96.4721 66.9102C103.259 72.9106 106.711 80.7639 106.711 90.9845H117C117 78.0093 112.449 67.1898 103.232 59.0408L96.4721 66.9102ZM106.711 90.9845C106.711 97.6606 104.982 103.776 101.491 109.443L110.216 114.975C114.728 107.651 117 99.6177 117 90.9845H106.711ZM101.478 109.464C98.2134 114.822 92.9907 119.442 85.4277 123.172L89.9259 132.56C98.8248 128.171 105.72 122.353 110.23 114.953L101.478 109.464ZM85.4801 123.147C78.1295 126.668 68.7025 128.562 56.9817 128.562V139C69.7256 139 80.7619 136.951 89.8735 132.585L85.4801 123.147ZM56.9817 128.562C48.8959 128.562 40.8005 127.675 32.6898 125.897L30.5154 136.098C39.3241 138.031 48.1481 139 56.9817 139V128.562ZM32.704 125.899C24.7688 124.135 17.9485 121.574 12.1791 118.274L7.12711 127.368C13.9329 131.259 21.7456 134.149 30.5012 136.096L32.704 125.899ZM14.3272 125.001L28.0456 94.7304L18.6975 90.3701L4.97902 120.641L14.3272 125.001ZM20.8302 97.0882C26.2301 100.201 31.8901 102.574 37.8029 104.198L40.4926 94.1235C35.4305 92.7327 30.5732 90.6988 25.9129 88.0125L20.8302 97.0882ZM37.8285 104.205C43.8173 105.817 49.6916 106.642 55.4384 106.642V96.2036C50.6677 96.2036 45.6816 95.5201 40.4669 94.1165L37.8285 104.205ZM55.4384 106.642C60.6492 106.642 65.3833 105.748 69.2697 103.541L64.2425 94.4335C62.4129 95.4728 59.6019 96.2036 55.4384 96.2036V106.642ZM69.3269 103.508C73.5977 101.008 76.359 97.0561 76.359 91.8544H66.0702C66.0702 92.684 65.8592 93.4867 64.1853 94.4664L69.3269 103.508ZM76.359 91.8544C76.359 89.5777 75.8332 87.3316 74.5977 85.3152C73.3687 83.3095 71.6245 81.8354 69.6502 80.7904L64.8909 90.0447C65.546 90.3914 65.7738 90.686 65.8595 90.8259C65.9387 90.9551 66.0702 91.2316 66.0702 91.8544H76.359ZM69.8019 80.874C65.8941 78.6332 59.923 77.9369 53.0377 77.9369V88.375C59.8708 88.375 63.3883 89.1864 64.7392 89.9611L69.8019 80.874ZM53.0377 77.9369H18.2271V88.375H53.0377V77.9369ZM23.3542 83.5842L29.356 9.64743L19.1019 8.79072L13.1001 82.7275L23.3542 83.5842ZM24.2289 14.4381H103.967V4H24.2289V14.4381ZM98.8231 9.21907V40.1856H109.112V9.21907H98.8231ZM103.967 34.9665H57.4961V45.4046H103.967V34.9665ZM52.3652 39.8084L51.5078 51.8123L61.7697 52.5666L62.6271 40.5627L52.3652 39.8084ZM56.6387 57.4085H62.812V46.9704H56.6387V57.4085Z" fill="#2D2D2D"/>
</svg>
