<svg width="125" height="148" viewBox="0 0 125 148" fill="none" xmlns="http://www.w3.org/2000/svg">
<path d="M94.9086 61.553L92.4667 66.3464L94.9086 61.553ZM110.697 75.7172L115.216 72.7951L110.697 75.7172ZM109.8 119.823L105.346 116.803L105.327 116.831L105.309 116.858L109.8 119.823ZM91.4998 135.242L89.2443 130.358L91.4998 135.242ZM33.9087 133.629L31.4256 138.401L31.4385 138.408L31.4514 138.414L33.9087 133.629ZM12.9176 112.831L17.6428 110.255L12.9176 112.831ZM13.9941 41.6515L9.2916 39.0348L9.28019 39.0553L9.26896 39.0759L13.9941 41.6515ZM38.394 17.6263L35.9007 12.8594L35.8894 12.8653L35.8782 12.8712L38.394 17.6263ZM96.5236 12.0682L95.1538 17.2699L95.1968 17.2811L95.2399 17.2917L96.5236 12.0682ZM113.926 19.2399L118.711 21.7031L120.94 17.3803L116.86 14.7301L113.926 19.2399ZM98.6765 48.8232L95.5557 53.2058L100.617 56.8044L103.461 51.2864L98.6765 48.8232ZM57.7705 47.7475L61.0522 52.0108L61.0599 52.0049L61.0676 51.999L57.7705 47.7475ZM48.6205 63.5253L43.3498 62.4355L40.5793 75.8172L51.7338 67.9129L48.6205 63.5253ZM72.1234 107.99L68.4163 104.09L72.1234 107.99ZM72.1234 89.3434L68.3175 93.1468L68.3663 93.1955L68.4163 93.2431L72.1234 89.3434ZM53.4646 89.3434L57.1717 93.2431L57.2217 93.1955L57.2705 93.1468L53.4646 89.3434ZM53.4646 107.99L57.1717 104.09L53.4646 107.99ZM73.5587 61.9116C80.3973 61.9116 86.6731 63.3989 92.4667 66.3464L97.3507 56.7596C89.9874 53.0136 82.0299 51.154 73.5587 51.154V61.9116ZM92.4667 66.3464C98.2145 69.2704 102.755 73.3523 106.178 78.6392L115.216 72.7951C110.745 65.8901 104.76 60.5293 97.3507 56.7596L92.4667 66.3464ZM106.178 78.6392C109.513 83.7894 111.235 89.7489 111.235 96.6944H122C122 87.8622 119.775 79.8369 115.216 72.7951L106.178 78.6392ZM111.235 96.6944C111.235 104.432 109.238 111.071 105.346 116.803L114.254 122.843C119.451 115.188 122 106.408 122 96.6944H111.235ZM105.309 116.858C101.473 122.661 96.1728 127.163 89.2443 130.358L93.7554 140.126C102.376 136.15 109.276 130.373 114.291 122.789L105.309 116.858ZM89.2443 130.358C82.2473 133.586 74.4162 135.242 65.6646 135.242V146C75.8111 146 85.2034 144.071 93.7554 140.126L89.2443 130.358ZM65.6646 135.242C54.2836 135.242 44.5688 133.05 36.366 128.843L31.4514 138.414C41.429 143.531 52.8848 146 65.6646 146V135.242ZM36.3919 128.857C28.4075 124.707 22.1743 118.557 17.6428 110.255L8.19249 115.406C13.7079 125.511 21.4688 133.227 31.4256 138.401L36.3919 128.857ZM17.6428 110.255C13.1537 102.031 10.7647 91.6751 10.7647 78.9445H0C0 92.9883 2.63448 105.223 8.19249 115.406L17.6428 110.255ZM10.7647 78.9445C10.7647 65.3241 13.4868 53.8137 18.7192 44.2271L9.26896 39.0759C3.01907 50.5264 0 63.8779 0 78.9445H10.7647ZM18.6966 44.2682C24.0634 34.6362 31.4471 27.3812 40.9098 22.3813L35.8782 12.8712C24.5292 18.8679 15.6464 27.6297 9.2916 39.0348L18.6966 44.2682ZM40.8874 22.393C50.5234 17.3594 61.8417 14.7576 74.9939 14.7576V4C60.3974 4 47.3156 6.89648 35.9007 12.8594L40.8874 22.393ZM74.9939 14.7576C82.0986 14.7576 88.8127 15.6023 95.1538 17.2699L97.8934 6.86649C90.5988 4.94819 82.9599 4 74.9939 4V14.7576ZM95.2399 17.2917C101.601 18.8532 106.816 21.0363 110.993 23.7497L116.86 14.7301C111.469 11.228 105.081 8.62997 97.8073 6.84463L95.2399 17.2917ZM109.142 16.7766L93.8915 46.36L103.461 51.2864L118.711 21.7031L109.142 16.7766ZM101.796 44.4407C94.5143 39.2624 85.7785 36.8106 75.891 36.8106V47.5682C83.9447 47.5682 90.3991 49.539 95.5557 53.2058L101.796 44.4407ZM75.891 36.8106C67.654 36.8106 60.3833 38.9189 54.4734 43.496L61.0676 51.999C64.7263 49.1653 69.5359 47.5682 75.891 47.5682V36.8106ZM54.4888 43.4841C48.6035 48.0083 44.9906 54.51 43.3498 62.4355L53.8912 64.615C55.1209 58.6753 57.608 54.6584 61.0522 52.0108L54.4888 43.4841ZM51.7338 67.9129C57.1998 64.0396 64.3503 61.9116 73.5587 61.9116V51.154C62.673 51.154 53.198 53.6877 45.5072 59.1376L51.7338 67.9129ZM62.794 116.775C67.7643 116.775 72.2786 115.262 75.8305 111.89L68.4163 104.09C67.1839 105.26 65.4786 106.018 62.794 106.018V116.775ZM75.8305 111.89C79.4996 108.406 81.0939 103.773 81.0939 98.6667H70.3292C70.3292 101.449 69.5315 103.032 68.4163 104.09L75.8305 111.89ZM81.0939 98.6667C81.0939 93.5604 79.4996 88.9272 75.8305 85.4438L68.4163 93.2431C69.5315 94.3018 70.3292 95.884 70.3292 98.6667H81.0939ZM75.9293 85.5401C72.3919 82.005 67.8446 80.3788 62.794 80.3788V91.1364C65.3983 91.1364 67.0706 91.9007 68.3175 93.1468L75.9293 85.5401ZM62.794 80.3788C57.7435 80.3788 53.1961 82.005 49.6587 85.5401L57.2705 93.1468C58.5174 91.9007 60.1896 91.1364 62.794 91.1364V80.3788ZM49.7575 85.4438C46.0884 88.9272 44.494 93.5604 44.494 98.6667H55.2587C55.2587 95.884 56.0565 94.3018 57.1717 93.2431L49.7575 85.4438ZM44.494 98.6667C44.494 103.773 46.0884 108.406 49.7575 111.89L57.1717 104.09C56.0565 103.032 55.2587 101.449 55.2587 98.6667H44.494ZM49.7575 111.89C53.3095 115.262 57.8237 116.775 62.794 116.775V106.018C60.1093 106.018 58.404 105.26 57.1717 104.09L49.7575 111.89Z" fill="#2D2D2D"/>
</svg>
