<svg width="93" height="85" viewBox="0 0 93 85" fill="none" xmlns="http://www.w3.org/2000/svg">
<path d="M67.9241 42.5L65.576 38.1396L57.2559 42.5L65.576 46.8604L67.9241 42.5ZM83.9404 50.8938L88.2017 53.4836L91 49.0026L86.2885 46.5334L83.9404 50.8938ZM72.4287 69.3271L69.8153 73.538L74.072 76.109L76.69 71.9169L72.4287 69.3271ZM56.0788 59.4521L58.6922 55.2411L50.8169 50.4846L51.0757 59.5905L56.0788 59.4521ZM56.5793 77.0625V82H61.7267L61.5824 76.9241L56.5793 77.0625ZM34.2233 77.0625L29.2203 76.9241L29.0759 82H34.2233V77.0625ZM34.7238 59.4521L39.7269 59.5905L39.9858 50.4846L32.1104 55.2411L34.7238 59.4521ZM18.3739 69.3271L14.0957 71.8896L16.7028 76.1258L20.9873 73.538L18.3739 69.3271ZM7.02912 50.8938L4.68097 46.5334L0 48.9866L2.75084 53.4562L7.02912 50.8938ZM23.0453 42.5L25.3935 46.8604L33.7136 42.5L25.3935 38.1396L23.0453 42.5ZM7.02912 34.1063L2.75084 31.5438L0 36.0134L4.68097 38.4666L7.02912 34.1063ZM18.3739 15.6729L20.9873 11.462L16.7028 8.87423L14.0957 13.1105L18.3739 15.6729ZM34.7238 25.5479L32.1104 29.7589L39.9858 34.5154L39.7269 25.4095L34.7238 25.5479ZM34.2233 7.9375V3H29.0759L29.2203 8.07588L34.2233 7.9375ZM56.5793 7.9375L61.5824 8.07588L61.7267 3H56.5793V7.9375ZM56.0788 25.5479L51.0757 25.4095L50.8169 34.5154L58.6922 29.7589L56.0788 25.5479ZM72.4287 15.6729L76.69 13.0831L74.072 8.89098L69.8153 11.462L72.4287 15.6729ZM83.9404 34.1063L86.2885 38.4666L91 35.9974L88.2017 31.5165L83.9404 34.1063ZM65.576 46.8604L81.5922 55.2541L86.2885 46.5334L70.2723 38.1396L65.576 46.8604ZM79.679 48.304L68.1674 66.7373L76.69 71.9169L88.2017 53.4836L79.679 48.304ZM75.0421 65.1161L58.6922 55.2411L53.4654 63.663L69.8153 73.538L75.0421 65.1161ZM51.0757 59.5905L51.5762 77.2009L61.5824 76.9241L61.0819 59.3137L51.0757 59.5905ZM56.5793 72.125H34.2233V82H56.5793V72.125ZM39.2264 77.2009L39.7269 59.5905L29.7208 59.3137L29.2203 76.9241L39.2264 77.2009ZM32.1104 55.2411L15.7605 65.1161L20.9873 73.538L37.3372 63.663L32.1104 55.2411ZM22.6522 66.7646L11.3074 48.3313L2.75084 53.4562L14.0957 71.8896L22.6522 66.7646ZM9.37727 55.2541L25.3935 46.8604L20.6972 38.1396L4.68097 46.5334L9.37727 55.2541ZM25.3935 38.1396L9.37727 29.7459L4.68097 38.4666L20.6972 46.8604L25.3935 38.1396ZM11.3074 36.6687L22.6522 18.2354L14.0957 13.1105L2.75084 31.5438L11.3074 36.6687ZM15.7605 19.8839L32.1104 29.7589L37.3372 21.337L20.9873 11.462L15.7605 19.8839ZM39.7269 25.4095L39.2264 7.79912L29.2203 8.07588L29.7208 25.6863L39.7269 25.4095ZM34.2233 12.875H56.5793V3H34.2233V12.875ZM51.5762 7.79912L51.0757 25.4095L61.0819 25.6863L61.5824 8.07588L51.5762 7.79912ZM58.6922 29.7589L75.0421 19.8839L69.8153 11.462L53.4654 21.337L58.6922 29.7589ZM68.1674 18.2627L79.679 36.6961L88.2017 31.5165L76.69 13.0831L68.1674 18.2627ZM81.5922 29.7459L65.576 38.1396L70.2723 46.8604L86.2885 38.4666L81.5922 29.7459Z" fill="white"/>
</svg>
