<svg width="925" height="925" viewBox="0 0 925 925" fill="none" xmlns="http://www.w3.org/2000/svg">
<circle cx="462.5" cy="462.5" r="462.5" fill="url(#paint0_linear_69_7)"/>
<path d="M312.207 515.695C312.207 510.161 310.254 505.93 306.348 503C302.441 500.005 295.41 496.88 285.254 493.625C275.098 490.305 267.057 487.049 261.133 483.859C244.987 475.135 236.914 463.384 236.914 448.605C236.914 440.923 239.062 434.087 243.359 428.098C247.721 422.043 253.939 417.323 262.012 413.938C270.15 410.552 279.264 408.859 289.355 408.859C299.512 408.859 308.561 410.715 316.504 414.426C324.447 418.072 330.599 423.247 334.961 429.953C339.388 436.659 341.602 444.276 341.602 452.805H312.305C312.305 446.294 310.254 441.249 306.152 437.668C302.051 434.022 296.289 432.199 288.867 432.199C281.706 432.199 276.139 433.729 272.168 436.789C268.197 439.784 266.211 443.755 266.211 448.703C266.211 453.326 268.522 457.199 273.145 460.324C277.832 463.449 284.701 466.379 293.75 469.113C310.417 474.126 322.559 480.344 330.176 487.766C337.793 495.188 341.602 504.432 341.602 515.5C341.602 527.805 336.947 537.473 327.637 544.504C318.327 551.47 305.794 554.953 290.039 554.953C279.102 554.953 269.141 552.967 260.156 548.996C251.172 544.96 244.303 539.458 239.551 532.492C234.863 525.526 232.52 517.453 232.52 508.273H261.914C261.914 523.964 271.289 531.809 290.039 531.809C297.005 531.809 302.441 530.409 306.348 527.609C310.254 524.745 312.207 520.773 312.207 515.695ZM399.805 410.812L436.328 513.938L472.656 410.812H511.133V553H481.738V514.133L484.668 447.043L446.289 553H426.172L387.891 447.141L390.82 514.133V553H361.523V410.812H399.805ZM575 410.812L611.523 513.938L647.852 410.812H686.328V553H656.934V514.133L659.863 447.043L621.484 553H601.367L563.086 447.141L566.016 514.133V553H536.719V410.812H575Z" fill="white"/>
<defs>
<linearGradient id="paint0_linear_69_7" x1="0" y1="462.5" x2="925" y2="462.5" gradientUnits="userSpaceOnUse">
<stop stop-color="#1D2B64"/>
<stop offset="1" stop-color="#F8CDDA"/>
</linearGradient>
</defs>
</svg>
